<?xml version="1.0" standalone="no"?>
<!-- Creator: fig2dev Version 3.2.6a -->
<!-- CreationDate: 2019-01-07 13:27:42 -->
<!-- Magnification: 1.05 -->
<svg	xmlns="http://www.w3.org/2000/svg"
	xmlns:xlink="http://www.w3.org/1999/xlink"
	width="243pt" height="261pt"
	viewBox="4488 888 3849 4131">
<g fill="none">
<!-- Line -->
<rect x="4500" y="2925" width="2925" height="1575"
	stroke="#000000" stroke-width="8px"/>
<!-- Text -->
<text xml:space="preserve" x="4725" y="3825" fill="#000000" font-family="Times" font-style="normal" font-weight="normal" font-size="144" text-anchor="start">Format:</text>
<!-- Text -->
<text xml:space="preserve" x="4725" y="4275" fill="#000000" font-family="Times" font-style="normal" font-weight="normal" font-size="144" text-anchor="start">RGBA8888 -&#62; 1 pixel = 4 bytes</text>
<!-- Text -->
<text xml:space="preserve" x="4725" y="4050" fill="#000000" font-family="Times" font-style="normal" font-weight="normal" font-size="144" text-anchor="start">RGB565      -&#62; 1 pixel = 2 bytes</text>
<!-- Text -->
<text xml:space="preserve" x="5400" y="3375" fill="#000000" font-family="Times" font-style="normal" font-weight="normal" font-size="144" text-anchor="start">Buffer</text>
<!-- Line -->
<rect x="7425" y="2925" width="450" height="1575"
	stroke="#000000" stroke-width="8px"/>
<!-- Line -->
<rect x="4500" y="900" width="2925" height="675"
	stroke="#000000" stroke-width="8px"/>
<!-- Text -->
<text xml:space="preserve" x="5400" y="1350" fill="#000000" font-family="Times" font-style="normal" font-weight="normal" font-size="144" text-anchor="start">Window(struct)</text>
<!-- Line -->
<polyline points=" 4500,2025 4500,2925"
	stroke="#000000" stroke-width="8px"/>
<!-- Line -->
<polyline points=" 7425,2475 7425,2925"
	stroke="#000000" stroke-width="8px"/>
<!-- Line -->
<polyline points=" 7875,2025 7875,2925"
	stroke="#000000" stroke-width="8px"/>
<!-- Line -->
<defs>
<clipPath id="cp0">
	<path clip-rule="evenodd" d="M 4488,888 H 8337 V 5019 H 4488 z
		M 7288,2670 7408,2700 7288,2730 7432,2707 7432,2693z
		M 4637,2730 4517,2700 4637,2670 4493,2693 4493,2707z"/>
</clipPath>
</defs>
<polyline points=" 4500,2700 7425,2700" clip-path="url(#cp0)"
	stroke="#000000" stroke-width="8px"/>
<!-- Forward arrow to point 7425,2700 -->
<polyline points=" 7288,2670 7408,2700 7288,2730"
	stroke="#000000" stroke-width="8px" stroke-miterlimit="8"/>
<!-- Backward arrow to point 4500,2700 -->
<polyline points=" 4637,2730 4517,2700 4637,2670"
	stroke="#000000" stroke-width="8px" stroke-miterlimit="8"/>
<!-- Line -->
<defs>
<clipPath id="cp1">
	<path clip-rule="evenodd" d="M 4488,888 H 8337 V 5019 H 4488 z
		M 7738,2220 7858,2250 7738,2280 7882,2257 7882,2243z
		M 4637,2280 4517,2250 4637,2220 4493,2243 4493,2257z"/>
</clipPath>
</defs>
<polyline points=" 4500,2250 7875,2250" clip-path="url(#cp1)"
	stroke="#000000" stroke-width="8px"/>
<!-- Forward arrow to point 7875,2250 -->
<polyline points=" 7738,2220 7858,2250 7738,2280"
	stroke="#000000" stroke-width="8px" stroke-miterlimit="8"/>
<!-- Backward arrow to point 4500,2250 -->
<polyline points=" 4637,2280 4517,2250 4637,2220"
	stroke="#000000" stroke-width="8px" stroke-miterlimit="8"/>
<!-- Line -->
<polyline points=" 7875,2925 8325,2925"
	stroke="#000000" stroke-width="8px"/>
<!-- Line -->
<polyline points=" 7875,4500 8325,4500"
	stroke="#000000" stroke-width="8px"/>
<!-- Line -->
<defs>
<clipPath id="cp2">
	<path clip-rule="evenodd" d="M 4488,888 H 8337 V 5019 H 4488 z
		M 8130,4363 8100,4483 8070,4363 8093,4507 8107,4507z
		M 8070,3062 8100,2942 8130,3062 8107,2918 8093,2918z"/>
</clipPath>
</defs>
<polyline points=" 8100,2925 8100,4500" clip-path="url(#cp2)"
	stroke="#000000" stroke-width="8px"/>
<!-- Forward arrow to point 8100,4500 -->
<polyline points=" 8130,4363 8100,4483 8070,4363"
	stroke="#000000" stroke-width="8px" stroke-miterlimit="8"/>
<!-- Backward arrow to point 8100,2925 -->
<polyline points=" 8070,3062 8100,2942 8130,3062"
	stroke="#000000" stroke-width="8px" stroke-miterlimit="8"/>
<!-- Text -->
<text xml:space="preserve" x="5400" y="2700" fill="#000000" font-family="Times" font-style="normal" font-weight="normal" font-size="144" text-anchor="start">Width</text>
<!-- Text -->
<text xml:space="preserve" x="5400" y="2250" fill="#000000" font-family="Times" font-style="normal" font-weight="normal" font-size="144" text-anchor="start">Stride</text>
<!-- Text -->
<g transform="translate(8100,3375) rotate(-270)" >
<text xml:space="preserve" x="0" y="0" fill="#000000" font-family="Times" font-style="normal" font-weight="normal" font-size="144" text-anchor="start">Height</text>
</g><!-- Text -->
<text xml:space="preserve" x="4725" y="4950" fill="#000000" font-family="Times" font-style="normal" font-weight="normal" font-size="144" text-anchor="start">Usage: Who uses it? How to use it?</text>
</g>
</svg>
